<?xml version="1.0" encoding="utf-8"?>
<!DOCTYPE svg PUBLIC "-//W3C//DTD SVG 20010904//EN" "http://www.w3.org/TR/2001/REC-SVG-20010904/DTD/svg10.dtd">
<svg xmlns="http://www.w3.org/2000/svg" xml:space="preserve" xmlns:xlink="http://www.w3.org/1999/xlink" width="1023" height="1023" viewBox="0 0 1023 1023">
<defs>
<mask id="qrmask"><g fill="#ffffff">
<g transform="translate(310,62) scale(5.1666666666667)"><rect width="6" height="6"/></g>
<g transform="translate(434,62) scale(5.1666666666667)"><rect width="6" height="6"/></g>
<g transform="translate(465,62) scale(5.1666666666667)"><rect width="6" height="6"/></g>
<g transform="translate(527,62) scale(5.1666666666667)"><rect width="6" height="6"/></g>
<g transform="translate(620,62) scale(5.1666666666667)"><rect width="6" height="6"/></g>
<g transform="translate(682,62) scale(5.1666666666667)"><rect width="6" height="6"/></g>
<g transform="translate(310,93) scale(5.1666666666667)"><rect width="6" height="6"/></g>
<g transform="translate(651,93) scale(5.1666666666667)"><rect width="6" height="6"/></g>
<g transform="translate(310,124) scale(5.1666666666667)"><rect width="6" height="6"/></g>
<g transform="translate(434,124) scale(5.1666666666667)"><rect width="6" height="6"/></g>
<g transform="translate(465,124) scale(5.1666666666667)"><rect width="6" height="6"/></g>
<g transform="translate(496,124) scale(5.1666666666667)"><rect width="6" height="6"/></g>
<g transform="translate(558,124) scale(5.1666666666667)"><rect width="6" height="6"/></g>
<g transform="translate(651,124) scale(5.1666666666667)"><rect width="6" height="6"/></g>
<g transform="translate(682,124) scale(5.1666666666667)"><rect width="6" height="6"/></g>
<g transform="translate(341,155) scale(5.1666666666667)"><rect width="6" height="6"/></g>
<g transform="translate(372,155) scale(5.1666666666667)"><rect width="6" height="6"/></g>
<g transform="translate(403,155) scale(5.1666666666667)"><rect width="6" height="6"/></g>
<g transform="translate(496,155) scale(5.1666666666667)"><rect width="6" height="6"/></g>
<g transform="translate(527,155) scale(5.1666666666667)"><rect width="6" height="6"/></g>
<g transform="translate(589,155) scale(5.1666666666667)"><rect width="6" height="6"/></g>
<g transform="translate(651,155) scale(5.1666666666667)"><rect width="6" height="6"/></g>
<g transform="translate(403,186) scale(5.1666666666667)"><rect width="6" height="6"/></g>
<g transform="translate(465,186) scale(5.1666666666667)"><rect width="6" height="6"/></g>
<g transform="translate(527,186) scale(5.1666666666667)"><rect width="6" height="6"/></g>
<g transform="translate(558,186) scale(5.1666666666667)"><rect width="6" height="6"/></g>
<g transform="translate(651,186) scale(5.1666666666667)"><rect width="6" height="6"/></g>
<g transform="translate(682,186) scale(5.1666666666667)"><rect width="6" height="6"/></g>
<g transform="translate(310,217) scale(5.1666666666667)"><rect width="6" height="6"/></g>
<g transform="translate(372,217) scale(5.1666666666667)"><rect width="6" height="6"/></g>
<g transform="translate(403,217) scale(5.1666666666667)"><rect width="6" height="6"/></g>
<g transform="translate(465,217) scale(5.1666666666667)"><rect width="6" height="6"/></g>
<g transform="translate(496,217) scale(5.1666666666667)"><rect width="6" height="6"/></g>
<g transform="translate(620,217) scale(5.1666666666667)"><rect width="6" height="6"/></g>
<g transform="translate(682,217) scale(5.1666666666667)"><rect width="6" height="6"/></g>
<g transform="translate(310,248) scale(5.1666666666667)"><rect width="6" height="6"/></g>
<g transform="translate(372,248) scale(5.1666666666667)"><rect width="6" height="6"/></g>
<g transform="translate(434,248) scale(5.1666666666667)"><rect width="6" height="6"/></g>
<g transform="translate(496,248) scale(5.1666666666667)"><rect width="6" height="6"/></g>
<g transform="translate(558,248) scale(5.1666666666667)"><rect width="6" height="6"/></g>
<g transform="translate(620,248) scale(5.1666666666667)"><rect width="6" height="6"/></g>
<g transform="translate(682,248) scale(5.1666666666667)"><rect width="6" height="6"/></g>
<g transform="translate(310,279) scale(5.1666666666667)"><rect width="6" height="6"/></g>
<g transform="translate(372,279) scale(5.1666666666667)"><rect width="6" height="6"/></g>
<g transform="translate(465,279) scale(5.1666666666667)"><rect width="6" height="6"/></g>
<g transform="translate(496,279) scale(5.1666666666667)"><rect width="6" height="6"/></g>
<g transform="translate(558,279) scale(5.1666666666667)"><rect width="6" height="6"/></g>
<g transform="translate(651,279) scale(5.1666666666667)"><rect width="6" height="6"/></g>
<g transform="translate(682,279) scale(5.1666666666667)"><rect width="6" height="6"/></g>
<g transform="translate(124,310) scale(5.1666666666667)"><rect width="6" height="6"/></g>
<g transform="translate(155,310) scale(5.1666666666667)"><rect width="6" height="6"/></g>
<g transform="translate(186,310) scale(5.1666666666667)"><rect width="6" height="6"/></g>
<g transform="translate(248,310) scale(5.1666666666667)"><rect width="6" height="6"/></g>
<g transform="translate(310,310) scale(5.1666666666667)"><rect width="6" height="6"/></g>
<g transform="translate(341,310) scale(5.1666666666667)"><rect width="6" height="6"/></g>
<g transform="translate(372,310) scale(5.1666666666667)"><rect width="6" height="6"/></g>
<g transform="translate(527,310) scale(5.1666666666667)"><rect width="6" height="6"/></g>
<g transform="translate(558,310) scale(5.1666666666667)"><rect width="6" height="6"/></g>
<g transform="translate(620,310) scale(5.1666666666667)"><rect width="6" height="6"/></g>
<g transform="translate(651,310) scale(5.1666666666667)"><rect width="6" height="6"/></g>
<g transform="translate(713,310) scale(5.1666666666667)"><rect width="6" height="6"/></g>
<g transform="translate(744,310) scale(5.1666666666667)"><rect width="6" height="6"/></g>
<g transform="translate(775,310) scale(5.1666666666667)"><rect width="6" height="6"/></g>
<g transform="translate(868,310) scale(5.1666666666667)"><rect width="6" height="6"/></g>
<g transform="translate(899,310) scale(5.1666666666667)"><rect width="6" height="6"/></g>
<g transform="translate(930,310) scale(5.1666666666667)"><rect width="6" height="6"/></g>
<g transform="translate(62,341) scale(5.1666666666667)"><rect width="6" height="6"/></g>
<g transform="translate(93,341) scale(5.1666666666667)"><rect width="6" height="6"/></g>
<g transform="translate(124,341) scale(5.1666666666667)"><rect width="6" height="6"/></g>
<g transform="translate(186,341) scale(5.1666666666667)"><rect width="6" height="6"/></g>
<g transform="translate(279,341) scale(5.1666666666667)"><rect width="6" height="6"/></g>
<g transform="translate(341,341) scale(5.1666666666667)"><rect width="6" height="6"/></g>
<g transform="translate(403,341) scale(5.1666666666667)"><rect width="6" height="6"/></g>
<g transform="translate(434,341) scale(5.1666666666667)"><rect width="6" height="6"/></g>
<g transform="translate(558,341) scale(5.1666666666667)"><rect width="6" height="6"/></g>
<g transform="translate(589,341) scale(5.1666666666667)"><rect width="6" height="6"/></g>
<g transform="translate(713,341) scale(5.1666666666667)"><rect width="6" height="6"/></g>
<g transform="translate(744,341) scale(5.1666666666667)"><rect width="6" height="6"/></g>
<g transform="translate(806,341) scale(5.1666666666667)"><rect width="6" height="6"/></g>
<g transform="translate(837,341) scale(5.1666666666667)"><rect width="6" height="6"/></g>
<g transform="translate(899,341) scale(5.1666666666667)"><rect width="6" height="6"/></g>
<g transform="translate(930,341) scale(5.1666666666667)"><rect width="6" height="6"/></g>
<g transform="translate(93,372) scale(5.1666666666667)"><rect width="6" height="6"/></g>
<g transform="translate(155,372) scale(5.1666666666667)"><rect width="6" height="6"/></g>
<g transform="translate(186,372) scale(5.1666666666667)"><rect width="6" height="6"/></g>
<g transform="translate(248,372) scale(5.1666666666667)"><rect width="6" height="6"/></g>
<g transform="translate(279,372) scale(5.1666666666667)"><rect width="6" height="6"/></g>
<g transform="translate(310,372) scale(5.1666666666667)"><rect width="6" height="6"/></g>
<g transform="translate(341,372) scale(5.1666666666667)"><rect width="6" height="6"/></g>
<g transform="translate(372,372) scale(5.1666666666667)"><rect width="6" height="6"/></g>
<g transform="translate(403,372) scale(5.1666666666667)"><rect width="6" height="6"/></g>
<g transform="translate(527,372) scale(5.1666666666667)"><rect width="6" height="6"/></g>
<g transform="translate(589,372) scale(5.1666666666667)"><rect width="6" height="6"/></g>
<g transform="translate(682,372) scale(5.1666666666667)"><rect width="6" height="6"/></g>
<g transform="translate(744,372) scale(5.1666666666667)"><rect width="6" height="6"/></g>
<g transform="translate(806,372) scale(5.1666666666667)"><rect width="6" height="6"/></g>
<g transform="translate(837,372) scale(5.1666666666667)"><rect width="6" height="6"/></g>
<g transform="translate(868,372) scale(5.1666666666667)"><rect width="6" height="6"/></g>
<g transform="translate(124,403) scale(5.1666666666667)"><rect width="6" height="6"/></g>
<g transform="translate(155,403) scale(5.1666666666667)"><rect width="6" height="6"/></g>
<g transform="translate(217,403) scale(5.1666666666667)"><rect width="6" height="6"/></g>
<g transform="translate(279,403) scale(5.1666666666667)"><rect width="6" height="6"/></g>
<g transform="translate(434,403) scale(5.1666666666667)"><rect width="6" height="6"/></g>
<g transform="translate(465,403) scale(5.1666666666667)"><rect width="6" height="6"/></g>
<g transform="translate(496,403) scale(5.1666666666667)"><rect width="6" height="6"/></g>
<g transform="translate(527,403) scale(5.1666666666667)"><rect width="6" height="6"/></g>
<g transform="translate(589,403) scale(5.1666666666667)"><rect width="6" height="6"/></g>
<g transform="translate(682,403) scale(5.1666666666667)"><rect width="6" height="6"/></g>
<g transform="translate(775,403) scale(5.1666666666667)"><rect width="6" height="6"/></g>
<g transform="translate(837,403) scale(5.1666666666667)"><rect width="6" height="6"/></g>
<g transform="translate(93,434) scale(5.1666666666667)"><rect width="6" height="6"/></g>
<g transform="translate(124,434) scale(5.1666666666667)"><rect width="6" height="6"/></g>
<g transform="translate(155,434) scale(5.1666666666667)"><rect width="6" height="6"/></g>
<g transform="translate(217,434) scale(5.1666666666667)"><rect width="6" height="6"/></g>
<g transform="translate(248,434) scale(5.1666666666667)"><rect width="6" height="6"/></g>
<g transform="translate(279,434) scale(5.1666666666667)"><rect width="6" height="6"/></g>
<g transform="translate(341,434) scale(5.1666666666667)"><rect width="6" height="6"/></g>
<g transform="translate(372,434) scale(5.1666666666667)"><rect width="6" height="6"/></g>
<g transform="translate(434,434) scale(5.1666666666667)"><rect width="6" height="6"/></g>
<g transform="translate(465,434) scale(5.1666666666667)"><rect width="6" height="6"/></g>
<g transform="translate(496,434) scale(5.1666666666667)"><rect width="6" height="6"/></g>
<g transform="translate(558,434) scale(5.1666666666667)"><rect width="6" height="6"/></g>
<g transform="translate(651,434) scale(5.1666666666667)"><rect width="6" height="6"/></g>
<g transform="translate(868,434) scale(5.1666666666667)"><rect width="6" height="6"/></g>
<g transform="translate(899,434) scale(5.1666666666667)"><rect width="6" height="6"/></g>
<g transform="translate(93,465) scale(5.1666666666667)"><rect width="6" height="6"/></g>
<g transform="translate(186,465) scale(5.1666666666667)"><rect width="6" height="6"/></g>
<g transform="translate(310,465) scale(5.1666666666667)"><rect width="6" height="6"/></g>
<g transform="translate(372,465) scale(5.1666666666667)"><rect width="6" height="6"/></g>
<g transform="translate(527,465) scale(5.1666666666667)"><rect width="6" height="6"/></g>
<g transform="translate(558,465) scale(5.1666666666667)"><rect width="6" height="6"/></g>
<g transform="translate(620,465) scale(5.1666666666667)"><rect width="6" height="6"/></g>
<g transform="translate(651,465) scale(5.1666666666667)"><rect width="6" height="6"/></g>
<g transform="translate(682,465) scale(5.1666666666667)"><rect width="6" height="6"/></g>
<g transform="translate(713,465) scale(5.1666666666667)"><rect width="6" height="6"/></g>
<g transform="translate(744,465) scale(5.1666666666667)"><rect width="6" height="6"/></g>
<g transform="translate(775,465) scale(5.1666666666667)"><rect width="6" height="6"/></g>
<g transform="translate(806,465) scale(5.1666666666667)"><rect width="6" height="6"/></g>
<g transform="translate(837,465) scale(5.1666666666667)"><rect width="6" height="6"/></g>
<g transform="translate(868,465) scale(5.1666666666667)"><rect width="6" height="6"/></g>
<g transform="translate(899,465) scale(5.1666666666667)"><rect width="6" height="6"/></g>
<g transform="translate(930,465) scale(5.1666666666667)"><rect width="6" height="6"/></g>
<g transform="translate(62,496) scale(5.1666666666667)"><rect width="6" height="6"/></g>
<g transform="translate(93,496) scale(5.1666666666667)"><rect width="6" height="6"/></g>
<g transform="translate(124,496) scale(5.1666666666667)"><rect width="6" height="6"/></g>
<g transform="translate(217,496) scale(5.1666666666667)"><rect width="6" height="6"/></g>
<g transform="translate(248,496) scale(5.1666666666667)"><rect width="6" height="6"/></g>
<g transform="translate(279,496) scale(5.1666666666667)"><rect width="6" height="6"/></g>
<g transform="translate(434,496) scale(5.1666666666667)"><rect width="6" height="6"/></g>
<g transform="translate(465,496) scale(5.1666666666667)"><rect width="6" height="6"/></g>
<g transform="translate(589,496) scale(5.1666666666667)"><rect width="6" height="6"/></g>
<g transform="translate(682,496) scale(5.1666666666667)"><rect width="6" height="6"/></g>
<g transform="translate(744,496) scale(5.1666666666667)"><rect width="6" height="6"/></g>
<g transform="translate(837,496) scale(5.1666666666667)"><rect width="6" height="6"/></g>
<g transform="translate(62,527) scale(5.1666666666667)"><rect width="6" height="6"/></g>
<g transform="translate(155,527) scale(5.1666666666667)"><rect width="6" height="6"/></g>
<g transform="translate(186,527) scale(5.1666666666667)"><rect width="6" height="6"/></g>
<g transform="translate(217,527) scale(5.1666666666667)"><rect width="6" height="6"/></g>
<g transform="translate(310,527) scale(5.1666666666667)"><rect width="6" height="6"/></g>
<g transform="translate(341,527) scale(5.1666666666667)"><rect width="6" height="6"/></g>
<g transform="translate(434,527) scale(5.1666666666667)"><rect width="6" height="6"/></g>
<g transform="translate(465,527) scale(5.1666666666667)"><rect width="6" height="6"/></g>
<g transform="translate(558,527) scale(5.1666666666667)"><rect width="6" height="6"/></g>
<g transform="translate(589,527) scale(5.1666666666667)"><rect width="6" height="6"/></g>
<g transform="translate(651,527) scale(5.1666666666667)"><rect width="6" height="6"/></g>
<g transform="translate(713,527) scale(5.1666666666667)"><rect width="6" height="6"/></g>
<g transform="translate(744,527) scale(5.1666666666667)"><rect width="6" height="6"/></g>
<g transform="translate(775,527) scale(5.1666666666667)"><rect width="6" height="6"/></g>
<g transform="translate(837,527) scale(5.1666666666667)"><rect width="6" height="6"/></g>
<g transform="translate(899,527) scale(5.1666666666667)"><rect width="6" height="6"/></g>
<g transform="translate(62,558) scale(5.1666666666667)"><rect width="6" height="6"/></g>
<g transform="translate(93,558) scale(5.1666666666667)"><rect width="6" height="6"/></g>
<g transform="translate(155,558) scale(5.1666666666667)"><rect width="6" height="6"/></g>
<g transform="translate(186,558) scale(5.1666666666667)"><rect width="6" height="6"/></g>
<g transform="translate(217,558) scale(5.1666666666667)"><rect width="6" height="6"/></g>
<g transform="translate(248,558) scale(5.1666666666667)"><rect width="6" height="6"/></g>
<g transform="translate(279,558) scale(5.1666666666667)"><rect width="6" height="6"/></g>
<g transform="translate(310,558) scale(5.1666666666667)"><rect width="6" height="6"/></g>
<g transform="translate(403,558) scale(5.1666666666667)"><rect width="6" height="6"/></g>
<g transform="translate(496,558) scale(5.1666666666667)"><rect width="6" height="6"/></g>
<g transform="translate(558,558) scale(5.1666666666667)"><rect width="6" height="6"/></g>
<g transform="translate(620,558) scale(5.1666666666667)"><rect width="6" height="6"/></g>
<g transform="translate(868,558) scale(5.1666666666667)"><rect width="6" height="6"/></g>
<g transform="translate(899,558) scale(5.1666666666667)"><rect width="6" height="6"/></g>
<g transform="translate(62,589) scale(5.1666666666667)"><rect width="6" height="6"/></g>
<g transform="translate(124,589) scale(5.1666666666667)"><rect width="6" height="6"/></g>
<g transform="translate(186,589) scale(5.1666666666667)"><rect width="6" height="6"/></g>
<g transform="translate(310,589) scale(5.1666666666667)"><rect width="6" height="6"/></g>
<g transform="translate(341,589) scale(5.1666666666667)"><rect width="6" height="6"/></g>
<g transform="translate(372,589) scale(5.1666666666667)"><rect width="6" height="6"/></g>
<g transform="translate(558,589) scale(5.1666666666667)"><rect width="6" height="6"/></g>
<g transform="translate(589,589) scale(5.1666666666667)"><rect width="6" height="6"/></g>
<g transform="translate(620,589) scale(5.1666666666667)"><rect width="6" height="6"/></g>
<g transform="translate(651,589) scale(5.1666666666667)"><rect width="6" height="6"/></g>
<g transform="translate(682,589) scale(5.1666666666667)"><rect width="6" height="6"/></g>
<g transform="translate(713,589) scale(5.1666666666667)"><rect width="6" height="6"/></g>
<g transform="translate(744,589) scale(5.1666666666667)"><rect width="6" height="6"/></g>
<g transform="translate(775,589) scale(5.1666666666667)"><rect width="6" height="6"/></g>
<g transform="translate(806,589) scale(5.1666666666667)"><rect width="6" height="6"/></g>
<g transform="translate(837,589) scale(5.1666666666667)"><rect width="6" height="6"/></g>
<g transform="translate(868,589) scale(5.1666666666667)"><rect width="6" height="6"/></g>
<g transform="translate(899,589) scale(5.1666666666667)"><rect width="6" height="6"/></g>
<g transform="translate(930,589) scale(5.1666666666667)"><rect width="6" height="6"/></g>
<g transform="translate(62,620) scale(5.1666666666667)"><rect width="6" height="6"/></g>
<g transform="translate(248,620) scale(5.1666666666667)"><rect width="6" height="6"/></g>
<g transform="translate(279,620) scale(5.1666666666667)"><rect width="6" height="6"/></g>
<g transform="translate(372,620) scale(5.1666666666667)"><rect width="6" height="6"/></g>
<g transform="translate(465,620) scale(5.1666666666667)"><rect width="6" height="6"/></g>
<g transform="translate(558,620) scale(5.1666666666667)"><rect width="6" height="6"/></g>
<g transform="translate(589,620) scale(5.1666666666667)"><rect width="6" height="6"/></g>
<g transform="translate(682,620) scale(5.1666666666667)"><rect width="6" height="6"/></g>
<g transform="translate(713,620) scale(5.1666666666667)"><rect width="6" height="6"/></g>
<g transform="translate(744,620) scale(5.1666666666667)"><rect width="6" height="6"/></g>
<g transform="translate(775,620) scale(5.1666666666667)"><rect width="6" height="6"/></g>
<g transform="translate(806,620) scale(5.1666666666667)"><rect width="6" height="6"/></g>
<g transform="translate(837,620) scale(5.1666666666667)"><rect width="6" height="6"/></g>
<g transform="translate(62,651) scale(5.1666666666667)"><rect width="6" height="6"/></g>
<g transform="translate(124,651) scale(5.1666666666667)"><rect width="6" height="6"/></g>
<g transform="translate(186,651) scale(5.1666666666667)"><rect width="6" height="6"/></g>
<g transform="translate(279,651) scale(5.1666666666667)"><rect width="6" height="6"/></g>
<g transform="translate(310,651) scale(5.1666666666667)"><rect width="6" height="6"/></g>
<g transform="translate(372,651) scale(5.1666666666667)"><rect width="6" height="6"/></g>
<g transform="translate(403,651) scale(5.1666666666667)"><rect width="6" height="6"/></g>
<g transform="translate(496,651) scale(5.1666666666667)"><rect width="6" height="6"/></g>
<g transform="translate(527,651) scale(5.1666666666667)"><rect width="6" height="6"/></g>
<g transform="translate(558,651) scale(5.1666666666667)"><rect width="6" height="6"/></g>
<g transform="translate(589,651) scale(5.1666666666667)"><rect width="6" height="6"/></g>
<g transform="translate(620,651) scale(5.1666666666667)"><rect width="6" height="6"/></g>
<g transform="translate(651,651) scale(5.1666666666667)"><rect width="6" height="6"/></g>
<g transform="translate(682,651) scale(5.1666666666667)"><rect width="6" height="6"/></g>
<g transform="translate(837,651) scale(5.1666666666667)"><rect width="6" height="6"/></g>
<g transform="translate(899,651) scale(5.1666666666667)"><rect width="6" height="6"/></g>
<g transform="translate(930,651) scale(5.1666666666667)"><rect width="6" height="6"/></g>
<g transform="translate(62,682) scale(5.1666666666667)"><rect width="6" height="6"/></g>
<g transform="translate(186,682) scale(5.1666666666667)"><rect width="6" height="6"/></g>
<g transform="translate(248,682) scale(5.1666666666667)"><rect width="6" height="6"/></g>
<g transform="translate(279,682) scale(5.1666666666667)"><rect width="6" height="6"/></g>
<g transform="translate(310,682) scale(5.1666666666667)"><rect width="6" height="6"/></g>
<g transform="translate(434,682) scale(5.1666666666667)"><rect width="6" height="6"/></g>
<g transform="translate(496,682) scale(5.1666666666667)"><rect width="6" height="6"/></g>
<g transform="translate(527,682) scale(5.1666666666667)"><rect width="6" height="6"/></g>
<g transform="translate(651,682) scale(5.1666666666667)"><rect width="6" height="6"/></g>
<g transform="translate(682,682) scale(5.1666666666667)"><rect width="6" height="6"/></g>
<g transform="translate(713,682) scale(5.1666666666667)"><rect width="6" height="6"/></g>
<g transform="translate(744,682) scale(5.1666666666667)"><rect width="6" height="6"/></g>
<g transform="translate(775,682) scale(5.1666666666667)"><rect width="6" height="6"/></g>
<g transform="translate(806,682) scale(5.1666666666667)"><rect width="6" height="6"/></g>
<g transform="translate(868,682) scale(5.1666666666667)"><rect width="6" height="6"/></g>
<g transform="translate(310,713) scale(5.1666666666667)"><rect width="6" height="6"/></g>
<g transform="translate(372,713) scale(5.1666666666667)"><rect width="6" height="6"/></g>
<g transform="translate(403,713) scale(5.1666666666667)"><rect width="6" height="6"/></g>
<g transform="translate(589,713) scale(5.1666666666667)"><rect width="6" height="6"/></g>
<g transform="translate(651,713) scale(5.1666666666667)"><rect width="6" height="6"/></g>
<g transform="translate(682,713) scale(5.1666666666667)"><rect width="6" height="6"/></g>
<g transform="translate(806,713) scale(5.1666666666667)"><rect width="6" height="6"/></g>
<g transform="translate(868,713) scale(5.1666666666667)"><rect width="6" height="6"/></g>
<g transform="translate(899,713) scale(5.1666666666667)"><rect width="6" height="6"/></g>
<g transform="translate(434,744) scale(5.1666666666667)"><rect width="6" height="6"/></g>
<g transform="translate(465,744) scale(5.1666666666667)"><rect width="6" height="6"/></g>
<g transform="translate(527,744) scale(5.1666666666667)"><rect width="6" height="6"/></g>
<g transform="translate(589,744) scale(5.1666666666667)"><rect width="6" height="6"/></g>
<g transform="translate(620,744) scale(5.1666666666667)"><rect width="6" height="6"/></g>
<g transform="translate(651,744) scale(5.1666666666667)"><rect width="6" height="6"/></g>
<g transform="translate(682,744) scale(5.1666666666667)"><rect width="6" height="6"/></g>
<g transform="translate(744,744) scale(5.1666666666667)"><rect width="6" height="6"/></g>
<g transform="translate(806,744) scale(5.1666666666667)"><rect width="6" height="6"/></g>
<g transform="translate(837,744) scale(5.1666666666667)"><rect width="6" height="6"/></g>
<g transform="translate(341,775) scale(5.1666666666667)"><rect width="6" height="6"/></g>
<g transform="translate(372,775) scale(5.1666666666667)"><rect width="6" height="6"/></g>
<g transform="translate(434,775) scale(5.1666666666667)"><rect width="6" height="6"/></g>
<g transform="translate(589,775) scale(5.1666666666667)"><rect width="6" height="6"/></g>
<g transform="translate(620,775) scale(5.1666666666667)"><rect width="6" height="6"/></g>
<g transform="translate(651,775) scale(5.1666666666667)"><rect width="6" height="6"/></g>
<g transform="translate(682,775) scale(5.1666666666667)"><rect width="6" height="6"/></g>
<g transform="translate(806,775) scale(5.1666666666667)"><rect width="6" height="6"/></g>
<g transform="translate(837,775) scale(5.1666666666667)"><rect width="6" height="6"/></g>
<g transform="translate(930,775) scale(5.1666666666667)"><rect width="6" height="6"/></g>
<g transform="translate(310,806) scale(5.1666666666667)"><rect width="6" height="6"/></g>
<g transform="translate(341,806) scale(5.1666666666667)"><rect width="6" height="6"/></g>
<g transform="translate(372,806) scale(5.1666666666667)"><rect width="6" height="6"/></g>
<g transform="translate(403,806) scale(5.1666666666667)"><rect width="6" height="6"/></g>
<g transform="translate(682,806) scale(5.1666666666667)"><rect width="6" height="6"/></g>
<g transform="translate(713,806) scale(5.1666666666667)"><rect width="6" height="6"/></g>
<g transform="translate(744,806) scale(5.1666666666667)"><rect width="6" height="6"/></g>
<g transform="translate(775,806) scale(5.1666666666667)"><rect width="6" height="6"/></g>
<g transform="translate(806,806) scale(5.1666666666667)"><rect width="6" height="6"/></g>
<g transform="translate(868,806) scale(5.1666666666667)"><rect width="6" height="6"/></g>
<g transform="translate(899,806) scale(5.1666666666667)"><rect width="6" height="6"/></g>
<g transform="translate(310,837) scale(5.1666666666667)"><rect width="6" height="6"/></g>
<g transform="translate(341,837) scale(5.1666666666667)"><rect width="6" height="6"/></g>
<g transform="translate(372,837) scale(5.1666666666667)"><rect width="6" height="6"/></g>
<g transform="translate(403,837) scale(5.1666666666667)"><rect width="6" height="6"/></g>
<g transform="translate(465,837) scale(5.1666666666667)"><rect width="6" height="6"/></g>
<g transform="translate(496,837) scale(5.1666666666667)"><rect width="6" height="6"/></g>
<g transform="translate(527,837) scale(5.1666666666667)"><rect width="6" height="6"/></g>
<g transform="translate(558,837) scale(5.1666666666667)"><rect width="6" height="6"/></g>
<g transform="translate(651,837) scale(5.1666666666667)"><rect width="6" height="6"/></g>
<g transform="translate(682,837) scale(5.1666666666667)"><rect width="6" height="6"/></g>
<g transform="translate(310,868) scale(5.1666666666667)"><rect width="6" height="6"/></g>
<g transform="translate(341,868) scale(5.1666666666667)"><rect width="6" height="6"/></g>
<g transform="translate(372,868) scale(5.1666666666667)"><rect width="6" height="6"/></g>
<g transform="translate(496,868) scale(5.1666666666667)"><rect width="6" height="6"/></g>
<g transform="translate(527,868) scale(5.1666666666667)"><rect width="6" height="6"/></g>
<g transform="translate(558,868) scale(5.1666666666667)"><rect width="6" height="6"/></g>
<g transform="translate(744,868) scale(5.1666666666667)"><rect width="6" height="6"/></g>
<g transform="translate(806,868) scale(5.1666666666667)"><rect width="6" height="6"/></g>
<g transform="translate(837,868) scale(5.1666666666667)"><rect width="6" height="6"/></g>
<g transform="translate(899,868) scale(5.1666666666667)"><rect width="6" height="6"/></g>
<g transform="translate(341,899) scale(5.1666666666667)"><rect width="6" height="6"/></g>
<g transform="translate(496,899) scale(5.1666666666667)"><rect width="6" height="6"/></g>
<g transform="translate(527,899) scale(5.1666666666667)"><rect width="6" height="6"/></g>
<g transform="translate(620,899) scale(5.1666666666667)"><rect width="6" height="6"/></g>
<g transform="translate(682,899) scale(5.1666666666667)"><rect width="6" height="6"/></g>
<g transform="translate(713,899) scale(5.1666666666667)"><rect width="6" height="6"/></g>
<g transform="translate(837,899) scale(5.1666666666667)"><rect width="6" height="6"/></g>
<g transform="translate(899,899) scale(5.1666666666667)"><rect width="6" height="6"/></g>
<g transform="translate(341,930) scale(5.1666666666667)"><rect width="6" height="6"/></g>
<g transform="translate(403,930) scale(5.1666666666667)"><rect width="6" height="6"/></g>
<g transform="translate(527,930) scale(5.1666666666667)"><rect width="6" height="6"/></g>
<g transform="translate(558,930) scale(5.1666666666667)"><rect width="6" height="6"/></g>
<g transform="translate(589,930) scale(5.1666666666667)"><rect width="6" height="6"/></g>
<g transform="translate(651,930) scale(5.1666666666667)"><rect width="6" height="6"/></g>
<g transform="translate(744,930) scale(5.1666666666667)"><rect width="6" height="6"/></g>
<g transform="translate(775,930) scale(5.1666666666667)"><rect width="6" height="6"/></g>
<g transform="translate(806,930) scale(5.1666666666667)"><rect width="6" height="6"/></g>
<g transform="translate(868,930) scale(5.1666666666667)"><rect width="6" height="6"/></g>
</g></mask></defs>
<rect width="1023" height="1023" fill="#ffffff" x="0" y="0" />
<rect x="0" y="0" width="1023" height="1023" mask="url(#qrmask)" fill="#000000" />
<g transform="translate(62,62)"  fill="#000000"><g transform="scale(15.5)"><path d="M0,0v14h14V0H0z M12,12H2V2h10V12z"/></g></g>
<g transform="translate(744,62)"  fill="#000000"><g transform="scale(15.5)"><path d="M0,0v14h14V0H0z M12,12H2V2h10V12z"/></g></g>
<g transform="translate(62,744)"  fill="#000000"><g transform="scale(15.5)"><path d="M0,0v14h14V0H0z M12,12H2V2h10V12z"/></g></g>
<g transform="translate(124,124)"  fill="#000000"><g transform="scale(15.5)"><rect width="6" height="6"/></g></g>
<g transform="translate(806,124)"  fill="#000000"><g transform="scale(15.5)"><rect width="6" height="6"/></g></g>
<g transform="translate(124,806)"  fill="#000000"><g transform="scale(15.5)"><rect width="6" height="6"/></g></g>
</svg>